<?xml version="1.0" encoding="utf-8"?>
<!-- Generator: Adobe Illustrator 23.1.1, SVG Export Plug-In . SVG Version: 6.00 Build 0)  -->
<svg version="1.1" id="Layer_1" xmlns="http://www.w3.org/2000/svg" xmlns:xlink="http://www.w3.org/1999/xlink" x="0px" y="0px"
	 viewBox="0 0 70 70.6" style="enable-background:new 0 0 70 70.6;" xml:space="preserve">
<title>Profile</title>
<desc>Link to personal portfolio site.</desc>
<style type="text/css">
	.st0{fill:#2E2C2D;}
	.st1{fill:#EEEEEE;}
	.st2{fill:#437589;}
</style>
<g>
	<circle class="st0" cx="35" cy="35" r="35"/>
	<path class="st1" d="M35,65.5C18.2,65.5,4.5,51.8,4.5,35S18.2,4.5,35,4.5S65.5,18.2,65.5,35S51.8,65.5,35,65.5z M35,5.5
		C18.7,5.5,5.5,18.7,5.5,35S18.7,64.5,35,64.5S64.5,51.3,64.5,35S51.3,5.5,35,5.5z"/>
	<g>
		<g>
			<path class="st1" d="M14.9,64.5v4.9h-1.8V57.3h2.1c1,0,1.8,0.1,2.3,0.2c0.5,0.1,1,0.4,1.4,0.8c0.7,0.7,1,1.5,1,2.6
				c0,1.1-0.4,2-1.1,2.6s-1.7,1-3,1H14.9z M14.9,62.8h0.7c1.7,0,2.5-0.6,2.5-1.9c0-1.2-0.9-1.9-2.6-1.9h-0.6V62.8z"/>
			<path class="st0" d="M15.2,57.3c1,0,1.8,0.1,2.3,0.2c0.5,0.1,1,0.4,1.4,0.8c0.7,0.7,1,1.5,1,2.6c0,1.1-0.4,2-1.1,2.6s-1.7,1-3,1
				h-0.8v4.9h-1.8V57.3H15.2 M14.9,62.8h0.7c1.7,0,2.5-0.6,2.5-1.9c0-1.2-0.9-1.9-2.6-1.9h-0.6V62.8 M15.2,56.3h-2.1h-1v1v12.1v1h1
				h1.8h1v-1v-3.9c1.4,0,2.6-0.4,3.5-1.2c1-0.8,1.5-2,1.5-3.4c0-1.3-0.5-2.4-1.3-3.3c-0.5-0.5-1.1-0.9-1.8-1
				C17.1,56.4,16.3,56.3,15.2,56.3L15.2,56.3z M15.9,61.8V60c1.2,0.1,1.2,0.6,1.2,0.9C17.1,61.2,17.1,61.7,15.9,61.8L15.9,61.8z"/>
		</g>
		<g>
			<path class="st1" d="M21.4,61.8h1.8v0.7c0.3-0.3,0.6-0.6,0.9-0.7c0.3-0.1,0.6-0.2,0.9-0.2c0.5,0,0.9,0.2,1.5,0.5l-0.8,1.6
				c-0.3-0.2-0.7-0.4-1-0.4c-1,0-1.4,0.7-1.4,2.2v3.9h-1.8V61.8z"/>
			<path class="st0" d="M24.9,61.6c0.5,0,0.9,0.2,1.5,0.5l-0.8,1.6c-0.3-0.2-0.7-0.4-1-0.4c-1,0-1.4,0.7-1.4,2.2v3.9h-1.8v-7.6h1.8
				v0.7c0.3-0.3,0.6-0.6,0.9-0.7C24.3,61.6,24.6,61.6,24.9,61.6 M24.9,60.6c-0.4,0-0.8,0.1-1.2,0.2h-0.6h-1.8h-1v1v7.6v1h1h1.8h1v-1
				v-3.9c0-1.2,0.3-1.2,0.4-1.2c0.1,0,0.2,0.1,0.4,0.2l1,0.7l0.5-1l0.8-1.6l0.4-0.8l-0.8-0.5C26.2,60.8,25.6,60.6,24.9,60.6
				L24.9,60.6z"/>
		</g>
		<g>
			<path class="st1" d="M26.9,65.5c0-1.1,0.4-2,1.2-2.8s1.7-1.2,2.9-1.2c1.1,0,2.1,0.4,2.9,1.2c0.8,0.8,1.2,1.7,1.2,2.9
				c0,1.1-0.4,2.1-1.2,2.9c-0.8,0.8-1.8,1.1-2.9,1.1c-1.1,0-2.1-0.4-2.9-1.2C27.3,67.7,26.9,66.7,26.9,65.5z M28.7,65.6
				c0,0.8,0.2,1.4,0.6,1.8c0.4,0.4,1,0.7,1.6,0.7c0.7,0,1.2-0.2,1.6-0.7s0.6-1,0.6-1.8s-0.2-1.3-0.6-1.8c-0.4-0.4-1-0.7-1.6-0.7
				c-0.7,0-1.2,0.2-1.6,0.7S28.7,64.9,28.7,65.6z"/>
			<path class="st0" d="M30.9,61.6c1.1,0,2.1,0.4,2.9,1.2c0.8,0.8,1.2,1.7,1.2,2.9c0,1.1-0.4,2.1-1.2,2.9c-0.8,0.8-1.8,1.1-2.9,1.1
				c-1.1,0-2.1-0.4-2.9-1.2c-0.8-0.8-1.2-1.7-1.2-2.9c0-1.1,0.4-2,1.2-2.8S29.8,61.6,30.9,61.6 M30.9,68c0.7,0,1.2-0.2,1.6-0.7
				s0.6-1,0.6-1.8s-0.2-1.3-0.6-1.8c-0.4-0.4-1-0.7-1.6-0.7c-0.7,0-1.2,0.2-1.6,0.7s-0.6,1-0.6,1.7c0,0.8,0.2,1.4,0.6,1.8
				C29.7,67.8,30.3,68,30.9,68 M30.9,60.6c-1.4,0-2.6,0.5-3.6,1.4c-1,1-1.5,2.1-1.5,3.5c0,1.4,0.5,2.7,1.4,3.6c1,1,2.2,1.5,3.6,1.5
				c1.4,0,2.6-0.5,3.6-1.4c1-1,1.5-2.2,1.5-3.6c0-1.4-0.5-2.6-1.5-3.6C33.5,61.1,32.3,60.6,30.9,60.6L30.9,60.6z M30.9,67
				c-0.5,0-0.8-0.2-0.9-0.4c-0.2-0.2-0.3-0.6-0.3-1.1c0-0.5,0.1-0.8,0.4-1.1c0.2-0.2,0.5-0.4,0.9-0.4c0.5,0,0.8,0.2,0.9,0.4
				c0.2,0.3,0.3,0.6,0.3,1.1s-0.1,0.8-0.3,1.1C31.7,66.8,31.5,67,30.9,67L30.9,67z"/>
		</g>
		<g>
			<path class="st1" d="M38.7,63.4v6h-1.8v-6h-0.6v-1.6h0.6v-2.9c0-1,0.2-1.6,0.5-2c0.5-0.6,1.1-0.8,2-0.8c0.3,0,0.7,0.1,1.2,0.3
				v1.8L40.4,58c-0.4-0.2-0.7-0.3-0.9-0.3c-0.3,0-0.5,0.1-0.6,0.3c-0.1,0.2-0.2,0.6-0.2,1.3v2.5h1.9v1.6H38.7z"/>
			<path class="st0" d="M39.4,56c0.3,0,0.7,0.1,1.2,0.3v1.8L40.4,58c-0.4-0.2-0.7-0.3-0.9-0.3c-0.3,0-0.5,0.1-0.6,0.3
				c-0.1,0.2-0.2,0.6-0.2,1.3v2.5h1.9v1.6h-1.9v6h-1.8v-6h-0.6v-1.6h0.6v-2.9c0-1,0.2-1.6,0.5-2C37.9,56.3,38.5,56,39.4,56 M39.4,55
				c-1.5,0-2.3,0.6-2.8,1.2c-0.5,0.6-0.7,1.5-0.7,2.7v1.9h-0.6v1v1.6v1h0.6v5v1h1h1.8h1v-1v-5h0.9h1v-1v-1.6v-1h-1h-0.9v-1.5
				c0-0.2,0-0.4,0-0.5c0.1,0,0.2,0.1,0.3,0.1l0.2,0.1l1.5,0.8v-1.6v-1.8v-0.7l-0.6-0.2C40.4,55.1,39.9,55,39.4,55L39.4,55z"/>
		</g>
		<g>
			<path class="st1" d="M41.7,58.6c0-0.3,0.1-0.6,0.3-0.8s0.5-0.3,0.8-0.3c0.3,0,0.6,0.1,0.8,0.3c0.2,0.2,0.3,0.5,0.3,0.8
				s-0.1,0.6-0.3,0.8c-0.2,0.2-0.5,0.3-0.8,0.3s-0.6-0.1-0.8-0.3S41.7,58.9,41.7,58.6z M43.7,61.8v7.6h-1.8v-7.6H43.7z"/>
			<path class="st0" d="M42.8,57.5c0.3,0,0.6,0.1,0.8,0.3c0.2,0.2,0.3,0.5,0.3,0.8s-0.1,0.6-0.3,0.8c-0.2,0.2-0.5,0.3-0.8,0.3
				s-0.6-0.1-0.8-0.3s-0.3-0.5-0.3-0.8c0-0.3,0.1-0.6,0.3-0.8S42.5,57.5,42.8,57.5 M43.7,61.8v7.6h-1.8v-7.6H43.7 M42.8,56.5
				c-0.6,0-1.1,0.2-1.5,0.6s-0.6,0.9-0.6,1.5c0,0.6,0.2,1.1,0.6,1.5s0.9,0.6,1.5,0.6c0.6,0,1.1-0.2,1.5-0.6c0.4-0.4,0.6-0.9,0.6-1.5
				c0-0.6-0.2-1.1-0.6-1.5C43.9,56.7,43.4,56.5,42.8,56.5L42.8,56.5z M44.7,60.8h-1h-1.8h-1v1v7.6v1h1h1.8h1v-1v-7.6V60.8L44.7,60.8
				z"/>
		</g>
		<g>
			<path class="st1" d="M47.7,56.2v13.2h-1.8V56.2H47.7z"/>
			<path class="st0" d="M47.7,56.2v13.2h-1.8V56.2H47.7 M48.7,55.2h-1h-1.8h-1v1v13.2v1h1h1.8h1v-1V56.2V55.2L48.7,55.2z"/>
		</g>
		<g>
			<path class="st1" d="M56.8,66h-5.5c0,0.6,0.2,1.1,0.6,1.5c0.4,0.4,0.8,0.5,1.4,0.5c0.4,0,0.8-0.1,1.1-0.3c0.3-0.2,0.6-0.6,1-1.2
				l1.5,0.8c-0.2,0.4-0.5,0.7-0.7,1s-0.5,0.5-0.8,0.7s-0.6,0.3-0.9,0.4s-0.7,0.1-1.1,0.1c-1.1,0-2-0.4-2.7-1.1c-0.7-0.7-1-1.7-1-2.9
				c0-1.2,0.3-2.2,1-2.9c0.7-0.7,1.6-1.1,2.7-1.1c1.1,0,2,0.4,2.7,1.1c0.6,0.7,1,1.7,1,2.9L56.8,66z M55,64.6
				c-0.2-0.9-0.8-1.4-1.8-1.4c-0.2,0-0.4,0-0.6,0.1s-0.4,0.2-0.5,0.3s-0.3,0.3-0.4,0.4s-0.2,0.4-0.2,0.6H55z"/>
			<path class="st0" d="M53.2,61.6c1.1,0,2,0.4,2.7,1.1c0.6,0.7,1,1.7,1,2.9l0,0.4h-5.5c0,0.6,0.2,1.1,0.6,1.5
				c0.4,0.4,0.8,0.5,1.4,0.5c0.4,0,0.8-0.1,1.1-0.3c0.3-0.2,0.6-0.6,1-1.2l1.5,0.8c-0.2,0.4-0.5,0.7-0.7,1s-0.5,0.5-0.8,0.7
				s-0.6,0.3-0.9,0.4s-0.7,0.1-1.1,0.1c-1.1,0-2-0.4-2.7-1.1c-0.7-0.7-1-1.7-1-2.9c0-1.2,0.3-2.2,1-2.9
				C51.2,61.9,52.1,61.6,53.2,61.6 M51.5,64.6H55c-0.2-0.9-0.8-1.4-1.8-1.4c-0.2,0-0.4,0-0.6,0.1s-0.4,0.2-0.5,0.3s-0.3,0.3-0.4,0.4
				S51.6,64.3,51.5,64.6 M53.2,60.6c-1.4,0-2.5,0.5-3.4,1.4c-0.8,0.9-1.3,2.1-1.3,3.6c0,1.5,0.4,2.7,1.3,3.6c0.9,0.9,2,1.4,3.5,1.4
				c0.5,0,0.9-0.1,1.3-0.2c0.4-0.1,0.9-0.3,1.2-0.5c0.4-0.2,0.7-0.5,1-0.9c0.3-0.3,0.6-0.7,0.9-1.2l0.5-0.9l-0.5-0.3l0-0.7l0-0.4
				c0-1.5-0.4-2.7-1.2-3.6C55.8,61,54.6,60.6,53.2,60.6L53.2,60.6z M53.1,67h0.6c-0.1,0-0.2,0-0.3,0C53.3,67,53.1,67,53.1,67
				L53.1,67z"/>
		</g>
	</g>
	<g>
		<path class="st2" d="M34.8,34.4c2.1,0,4-0.8,5.4-2.3c1.5-1.5,2.3-3.3,2.3-5.4c0-2.1-0.8-4-2.3-5.4c-1.5-1.5-3.3-2.3-5.4-2.3
			c-2.1,0-4,0.8-5.4,2.3s-2.3,3.3-2.3,5.4c0,2.1,0.8,4,2.3,5.4C30.8,33.7,32.7,34.4,34.8,34.4z"/>
		<path class="st2" d="M48.3,43.6c0-0.6-0.1-1.3-0.3-2c-0.1-0.7-0.3-1.4-0.5-2c-0.2-0.6-0.5-1.3-0.8-1.9c-0.4-0.6-0.8-1.2-1.3-1.6
			c-0.5-0.5-1.1-0.9-1.8-1.1c-0.7-0.3-1.5-0.4-2.3-0.4c-0.3,0-0.6,0.1-1.3,0.5c-0.4,0.2-0.8,0.5-1.3,0.8c-0.4,0.3-1,0.5-1.7,0.7
			c-0.7,0.2-1.4,0.3-2.1,0.3s-1.4-0.1-2.1-0.3c-0.7-0.2-1.3-0.5-1.7-0.7c-0.5-0.3-0.9-0.6-1.3-0.8c-0.6-0.4-0.9-0.5-1.3-0.5
			c-0.8,0-1.6,0.1-2.3,0.4c-0.7,0.3-1.3,0.7-1.8,1.1c-0.5,0.5-0.9,1-1.3,1.6c-0.3,0.6-0.6,1.2-0.8,1.9c-0.2,0.6-0.4,1.3-0.5,2
			c-0.1,0.7-0.2,1.4-0.3,2c0,0.6-0.1,1.2-0.1,1.9c0,1.7,0.5,3,1.6,4c1,1,2.4,1.5,4.1,1.5h15.4c1.7,0,3-0.5,4.1-1.5
			c1-1,1.6-2.3,1.6-4C48.3,44.9,48.3,44.2,48.3,43.6z"/>
	</g>
</g>
</svg>
