<?xml version="1.0" encoding="utf-8"?>
<!-- Generator: Adobe Illustrator 23.1.1, SVG Export Plug-In . SVG Version: 6.00 Build 0)  -->
<svg version="1.1" id="Layer_1" xmlns="http://www.w3.org/2000/svg" xmlns:xlink="http://www.w3.org/1999/xlink" x="0px" y="0px"
	 viewBox="0 0 70 70.6" style="enable-background:new 0 0 70 70.6;" xml:space="preserve">
<title>GitHub</title>
<desc>Link to personal GitHub.</desc>
<style type="text/css">
	.github-svg .st0{fill:#2E2C2D;}
	.github-svg .st1{fill:#EEEEEE;}
	.github-svg .st2{fill:#437589;}
</style>
<g class="github-svg">
	<circle class="st0" cx="35" cy="35" r="35"/>
	<path class="st1" d="M35,65.5C18.2,65.5,4.5,51.8,4.5,35S18.2,4.5,35,4.5c16.8,0,30.5,13.7,30.5,30.5S51.8,65.5,35,65.5z M35,5.5
		C18.7,5.5,5.5,18.7,5.5,35S18.7,64.5,35,64.5S64.5,51.3,64.5,35S51.3,5.5,35,5.5z"/>
	<path class="st2" d="M40.2,50.6H40l-0.1-0.1v-0.9c0-0.9,0-2.2,0-3.7c0-1-0.1-1.9-0.6-2.7c3.4-0.6,7.1-2.4,7.1-9
		c0-1.8-0.6-3.4-1.6-4.7c0.3-0.9,0.4-2.5-0.3-4.6c-0.1-0.1-0.3-0.3-0.4-0.4c0,0-0.3-0.1-0.6-0.1c-0.9,0-2.2,0.3-4.4,1.8
		c-1.2-0.1-2.5-0.4-4-0.4s-2.8,0.1-4.1,0.4c-2.1-1.3-3.5-1.6-4.4-1.6c-0.3,0-0.4,0.1-0.6,0.1c-0.1,0-0.4,0.3-0.4,0.4
		c-0.7,2.1-0.6,3.7-0.3,4.6c-1,1.3-1.6,2.9-1.6,4.7c0,6.5,3.8,8.3,7.1,9c-0.1,0.3-0.3,0.7-0.4,1.2c-0.3,0.1-0.7,0.3-1.3,0.3
		c-0.6,0-1.2-0.1-1.6-0.6L27,44.1l0,0c-0.1-0.1-0.1-0.3-0.3-0.3l0,0l0,0l-0.1-0.1l-0.1-0.1c0-0.1-1.2-1.9-3.2-2.1
		c-0.7,0-1.3,0.3-1.5,0.7c-0.3,0.7,0.6,1.3,1,1.6c0,0,0.9,0.4,1.5,2.1c0.3,1,1.6,2.9,4.7,2.9c0.3,0,0.6,0,1,0v2.1L29.8,51
		c0,0-0.1,0,0,0c-6.6-2.7-11.1-8.8-11.1-15.8C18.8,26.2,26,19,35,19s16.2,7.2,16.2,16.2C51.2,42.2,46.8,48.3,40.2,50.6z"/>
	<g>
		<g>
			<path class="st1" d="M16.7,63.1h5v0.4c0,0.9-0.1,1.7-0.3,2.4c-0.2,0.6-0.6,1.2-1.1,1.8c-1.1,1.3-2.5,1.9-4.3,1.9
				c-1.7,0-3.1-0.6-4.3-1.8c-1.2-1.2-1.8-2.7-1.8-4.4c0-1.8,0.6-3.2,1.8-4.5c1.2-1.2,2.7-1.8,4.5-1.8c0.9,0,1.8,0.2,2.6,0.6
				c0.8,0.4,1.5,1,2.3,1.9l-1.3,1.2c-1-1.3-2.2-2-3.6-2c-1.3,0-2.3,0.4-3.2,1.3c-0.9,0.9-1.3,1.9-1.3,3.2c0,1.3,0.5,2.5,1.4,3.3
				c0.9,0.8,1.9,1.2,2.9,1.2c0.9,0,1.7-0.3,2.4-0.9c0.7-0.6,1.1-1.3,1.2-2.2h-3V63.1z"/>
			<path class="st0" d="M16.2,57.1c0.9,0,1.8,0.2,2.6,0.6c0.8,0.4,1.5,1,2.3,1.9l-1.3,1.2c-1-1.3-2.2-2-3.6-2
				c-1.3,0-2.3,0.4-3.2,1.3c-0.9,0.9-1.3,1.9-1.3,3.2c0,1.3,0.5,2.5,1.4,3.3c0.9,0.8,1.9,1.2,2.9,1.2c0.9,0,1.7-0.3,2.4-0.9
				c0.7-0.6,1.1-1.3,1.2-2.2h-3v-1.7h5v0.4c0,0.9-0.1,1.7-0.3,2.4c-0.2,0.6-0.6,1.2-1.1,1.8c-1.1,1.3-2.5,1.9-4.3,1.9
				c-1.7,0-3.1-0.6-4.3-1.8c-1.2-1.2-1.8-2.7-1.8-4.4c0-1.8,0.6-3.2,1.8-4.5C13,57.7,14.5,57.1,16.2,57.1 M16.2,56.1
				c-2,0-3.8,0.7-5.2,2.1c-1.4,1.4-2.1,3.1-2.1,5.2c0,2,0.7,3.7,2.1,5.1c1.4,1.4,3.1,2.1,5,2.1c2,0,3.7-0.7,5-2.2
				c0.6-0.7,1-1.4,1.3-2.2c0.2-0.8,0.4-1.7,0.4-2.7v-0.4v-1h-1h-1.8l0.6-0.6l1.3-1.2l0.7-0.7l-0.6-0.7c-0.8-1-1.7-1.7-2.6-2.1
				C18.3,56.3,17.3,56.1,16.2,56.1L16.2,56.1z M16.1,66.9c-0.8,0-1.5-0.3-2.3-1c-0.7-0.7-1.1-1.5-1.1-2.6c0-1,0.3-1.9,1-2.5
				c0.7-0.7,1.5-1,2.5-1c1.1,0,2,0.5,2.8,1.6l0.5,0.7h-2.9h-1v1v1.7v1h1h1.6c-0.1,0.1-0.3,0.3-0.4,0.4
				C17.3,66.7,16.8,66.9,16.1,66.9L16.1,66.9z"/>
		</g>
		<g>
			<path class="st1" d="M23.4,58.6c0-0.3,0.1-0.6,0.3-0.8s0.5-0.3,0.8-0.3c0.3,0,0.6,0.1,0.8,0.3c0.2,0.2,0.3,0.5,0.3,0.8
				s-0.1,0.6-0.3,0.8c-0.2,0.2-0.5,0.3-0.8,0.3s-0.6-0.1-0.8-0.3S23.4,58.9,23.4,58.6z M25.4,61.8v7.6h-1.8v-7.6H25.4z"/>
			<path class="st0" d="M24.5,57.5c0.3,0,0.6,0.1,0.8,0.3c0.2,0.2,0.3,0.5,0.3,0.8s-0.1,0.6-0.3,0.8c-0.2,0.2-0.5,0.3-0.8,0.3
				s-0.6-0.1-0.8-0.3s-0.3-0.5-0.3-0.8c0-0.3,0.1-0.6,0.3-0.8S24.2,57.5,24.5,57.5 M25.4,61.8v7.6h-1.8v-7.6H25.4 M24.5,56.5
				c-0.6,0-1.1,0.2-1.5,0.6s-0.6,0.9-0.6,1.5c0,0.6,0.2,1.1,0.6,1.5s0.9,0.6,1.5,0.6c0.6,0,1.1-0.2,1.5-0.6c0.4-0.4,0.6-0.9,0.6-1.5
				c0-0.6-0.2-1.1-0.6-1.5C25.6,56.7,25.1,56.5,24.5,56.5L24.5,56.5z M26.4,60.8h-1h-1.8h-1v1v7.6v1h1h1.8h1v-1v-7.6V60.8L26.4,60.8
				z"/>
		</g>
		<g>
			<path class="st1" d="M29.4,63.4v6h-1.8v-6h-0.8v-1.6h0.8V59h1.8v2.8h1.4v1.6H29.4z"/>
			<path class="st0" d="M29.4,59v2.8h1.4v1.6h-1.4v6h-1.8v-6h-0.8v-1.6h0.8V59H29.4 M30.4,58h-1h-1.8h-1v1v1.8h-0.8v1v1.6v1h0.8v5v1
				h1h1.8h1v-1v-5h0.4h1v-1v-1.6v-1h-1h-0.4V59V58L30.4,58z"/>
		</g>
		<g>
			<path class="st1" d="M34.2,62h5.2v-4.7h1.8v12.1h-1.8v-5.6h-5.2v5.6h-1.8V57.3h1.8V62z"/>
			<path class="st0" d="M41.2,57.3v12.1h-1.8v-5.6h-5.2v5.6h-1.8V57.3h1.8V62h5.2v-4.7H41.2 M42.2,56.3h-1h-1.8h-1v1V61h-3.2v-3.7
				v-1h-1h-1.8h-1v1v12.1v1h1h1.8h1v-1v-4.6h3.2v4.6v1h1h1.8h1v-1V57.3V56.3L42.2,56.3z"/>
		</g>
		<g>
			<path class="st1" d="M45.5,61.8v4.4c0,1.3,0.5,1.9,1.5,1.9s1.5-0.6,1.5-1.9v-4.4h1.8v4.4c0,0.6-0.1,1.1-0.2,1.6
				c-0.1,0.4-0.4,0.8-0.8,1.1c-0.6,0.5-1.3,0.8-2.3,0.8c-0.9,0-1.7-0.3-2.3-0.8c-0.4-0.3-0.6-0.7-0.8-1.1c-0.1-0.4-0.2-0.9-0.2-1.6
				v-4.4H45.5z"/>
			<path class="st0" d="M50.2,61.8v4.4c0,0.6-0.1,1.1-0.2,1.6c-0.1,0.4-0.4,0.8-0.8,1.1c-0.6,0.5-1.3,0.8-2.3,0.8
				c-0.9,0-1.7-0.3-2.3-0.8c-0.4-0.3-0.6-0.7-0.8-1.1c-0.1-0.4-0.2-0.9-0.2-1.6v-4.4h1.8v4.4c0,1.3,0.5,1.9,1.5,1.9s1.5-0.6,1.5-1.9
				v-4.4H50.2 M51.2,60.8h-1h-1.8h-1v1v4.4c0,0.9-0.2,0.9-0.5,0.9s-0.5,0-0.5-0.9v-4.4v-1h-1h-1.8h-1v1v4.4c0,0.8,0.1,1.5,0.3,2
				c0.2,0.5,0.6,1,1,1.4c0.8,0.7,1.8,1,2.9,1c1.2,0,2.1-0.3,2.9-1c0.5-0.4,0.8-0.9,1-1.5c0.2-0.6,0.3-1.2,0.3-1.9v-4.4V60.8
				L51.2,60.8z"/>
		</g>
		<g>
			<path class="st1" d="M54.2,56.2v6.5c0.7-0.7,1.5-1.1,2.4-1.1c1,0,1.9,0.4,2.6,1.1c0.7,0.8,1,1.7,1,2.8c0,1.2-0.3,2.1-1,2.9
				c-0.7,0.8-1.5,1.1-2.6,1.1c-0.9,0-1.7-0.3-2.4-1v0.8h-1.8V56.2H54.2z M58.4,65.6c0-0.7-0.2-1.3-0.6-1.8c-0.4-0.5-0.9-0.7-1.5-0.7
				c-0.6,0-1.2,0.2-1.6,0.7c-0.4,0.4-0.6,1-0.6,1.8c0,0.7,0.2,1.3,0.6,1.8c0.4,0.5,0.9,0.7,1.6,0.7c0.6,0,1.1-0.2,1.5-0.7
				C58.2,66.9,58.4,66.3,58.4,65.6z"/>
			<path class="st0" d="M54.2,56.2v6.5c0.7-0.7,1.5-1.1,2.4-1.1c1,0,1.9,0.4,2.6,1.1c0.7,0.8,1,1.7,1,2.8c0,1.2-0.3,2.1-1,2.9
				c-0.7,0.8-1.5,1.1-2.6,1.1c-0.9,0-1.7-0.3-2.4-1v0.8h-1.8V56.2H54.2 M56.3,68c0.6,0,1.1-0.2,1.5-0.7c0.4-0.5,0.6-1,0.6-1.7
				c0-0.7-0.2-1.3-0.6-1.8c-0.4-0.5-0.9-0.7-1.5-0.7c-0.6,0-1.2,0.2-1.6,0.7c-0.4,0.4-0.6,1-0.6,1.8c0,0.7,0.2,1.3,0.6,1.8
				C55.1,67.8,55.6,68,56.3,68 M55.2,55.2h-1h-1.8h-1v1v13.2v1h1h1.8h1v0c0.4,0.1,0.9,0.2,1.4,0.2c1.3,0,2.5-0.5,3.3-1.5
				c0.9-1,1.3-2.2,1.3-3.6c0-1.4-0.4-2.6-1.3-3.5c-0.9-1-2-1.5-3.3-1.5c-0.5,0-0.9,0.1-1.4,0.2v-4.6V55.2L55.2,55.2z M56.3,67
				c-0.4,0-0.6-0.1-0.8-0.3c-0.2-0.3-0.3-0.6-0.3-1.1c0-0.5,0.1-0.8,0.3-1.1c0.2-0.2,0.5-0.3,0.8-0.3c0.3,0,0.5,0.1,0.7,0.4
				c0.2,0.3,0.4,0.6,0.4,1.1c0,0.4-0.1,0.8-0.4,1.1C56.8,66.9,56.6,67,56.3,67L56.3,67z"/>
		</g>
	</g>
</g>
</svg>
