<?xml version="1.0" encoding="utf-8"?>
<!-- Generator: Adobe Illustrator 23.1.1, SVG Export Plug-In . SVG Version: 6.00 Build 0)  -->
<svg version="1.1" id="Layer_1" xmlns="http://www.w3.org/2000/svg" xmlns:xlink="http://www.w3.org/1999/xlink" x="0px" y="0px"
	 viewBox="0 0 70 70.6" style="enable-background:new 0 0 70 70.6;" xml:space="preserve">
<title>Credits</title>
<desc>Showing links / credots of resources used in creating this site.</desc>
<style type="text/css">
	.credits-svg .st0{fill:#2E2C2D;}
	.credits-svg .st1{fill:#EEEEEE;}
	.credits-svg .st2{fill:#437589;}
</style>
<g class="credits-svg">
	<circle class="st0" cx="35" cy="35" r="35"/>
	<path class="st1" d="M35,65.5C18.2,65.5,4.5,51.8,4.5,35S18.2,4.5,35,4.5S65.5,18.2,65.5,35S51.8,65.5,35,65.5z M35,5.5
		C18.7,5.5,5.5,18.7,5.5,35c0,16.3,13.2,29.5,29.5,29.5c16.3,0,29.5-13.2,29.5-29.5C64.5,18.7,51.3,5.5,35,5.5z"/>
	<g>
		<g>
			<path class="st1" d="M20,58v2.2c-1.1-0.9-2.1-1.3-3.3-1.3c-1.2,0-2.3,0.4-3.1,1.3c-0.9,0.9-1.3,2-1.3,3.2c0,1.3,0.4,2.3,1.3,3.2
				s1.9,1.3,3.1,1.3c0.6,0,1.2-0.1,1.6-0.3c0.2-0.1,0.5-0.2,0.8-0.4s0.6-0.4,0.8-0.6v2.2c-1,0.6-2.1,0.9-3.3,0.9
				c-1.7,0-3.2-0.6-4.4-1.8c-1.2-1.2-1.8-2.7-1.8-4.4c0-1.5,0.5-2.9,1.5-4.1c1.2-1.5,2.9-2.2,4.9-2.2C17.9,57.1,19,57.4,20,58z"/>
			<path class="st0" d="M16.8,57.1c1.1,0,2.1,0.3,3.1,0.9v2.2c-1.1-0.9-2.1-1.3-3.3-1.3c-1.2,0-2.3,0.4-3.1,1.3
				c-0.9,0.9-1.3,2-1.3,3.2c0,1.3,0.4,2.3,1.3,3.2s1.9,1.3,3.1,1.3c0.6,0,1.2-0.1,1.6-0.3c0.2-0.1,0.5-0.2,0.8-0.4s0.6-0.4,0.8-0.6
				v2.2c-1,0.6-2.1,0.9-3.3,0.9c-1.7,0-3.2-0.6-4.4-1.8c-1.2-1.2-1.8-2.7-1.8-4.4c0-1.5,0.5-2.9,1.5-4.1
				C13.2,57.8,14.9,57.1,16.8,57.1 M16.8,56.1c-2.3,0-4.2,0.9-5.6,2.6c-1.2,1.4-1.8,3-1.8,4.8c0,2,0.7,3.7,2.1,5.1
				c1.4,1.4,3.1,2.1,5.1,2.1c1.3,0,2.6-0.3,3.8-1l0.5-0.3v-0.6v-2.2v-2.1l-1.6,1.4c-0.3,0.2-0.5,0.4-0.8,0.6
				c-0.2,0.1-0.4,0.3-0.6,0.3c-0.3,0.2-0.8,0.2-1.2,0.2c-1,0-1.8-0.3-2.4-1c-0.7-0.7-1-1.5-1-2.5c0-1,0.3-1.9,1-2.6
				c0.7-0.7,1.4-1,2.4-1c0.9,0,1.7,0.4,2.6,1.1l1.6,1.4v-2.1V58v-0.6l-0.5-0.3C19.3,56.4,18.1,56.1,16.8,56.1L16.8,56.1z"/>
		</g>
		<g>
			<path class="st1" d="M21.9,61.8h1.8v0.7c0.3-0.3,0.6-0.6,0.9-0.7c0.3-0.1,0.6-0.2,0.9-0.2c0.5,0,0.9,0.2,1.5,0.5l-0.8,1.6
				c-0.3-0.2-0.7-0.4-1-0.4c-1,0-1.4,0.7-1.4,2.2v3.9h-1.8V61.8z"/>
			<path class="st0" d="M25.5,61.6c0.5,0,0.9,0.2,1.5,0.5l-0.8,1.6c-0.3-0.2-0.7-0.4-1-0.4c-1,0-1.4,0.7-1.4,2.2v3.9h-1.8v-7.6h1.8
				v0.7c0.3-0.3,0.6-0.6,0.9-0.7C24.8,61.6,25.1,61.6,25.5,61.6 M25.5,60.6c-0.4,0-0.8,0.1-1.2,0.2h-0.6h-1.8h-1v1v7.6v1h1h1.8h1v-1
				v-3.9c0-1.2,0.3-1.2,0.4-1.2c0.1,0,0.2,0.1,0.4,0.2l1,0.7l0.5-1l0.8-1.6l0.4-0.8l-0.8-0.5C26.8,60.8,26.1,60.6,25.5,60.6
				L25.5,60.6z"/>
		</g>
		<g>
			<path class="st1" d="M34.7,66h-5.5c0,0.6,0.2,1.1,0.6,1.5c0.4,0.4,0.8,0.5,1.4,0.5c0.4,0,0.8-0.1,1.1-0.3c0.3-0.2,0.6-0.6,1-1.2
				l1.5,0.8c-0.2,0.4-0.5,0.7-0.7,1s-0.5,0.5-0.8,0.7s-0.6,0.3-0.9,0.4s-0.7,0.1-1.1,0.1c-1.1,0-2-0.4-2.7-1.1c-0.7-0.7-1-1.7-1-2.9
				c0-1.2,0.3-2.2,1-2.9c0.7-0.7,1.6-1.1,2.7-1.1c1.1,0,2,0.4,2.7,1.1c0.6,0.7,1,1.7,1,2.9L34.7,66z M32.9,64.6
				c-0.2-0.9-0.8-1.4-1.8-1.4c-0.2,0-0.4,0-0.6,0.1s-0.4,0.2-0.5,0.3s-0.3,0.3-0.4,0.4s-0.2,0.4-0.2,0.6H32.9z"/>
			<path class="st0" d="M31.1,61.6c1.1,0,2,0.4,2.7,1.1c0.6,0.7,1,1.7,1,2.9l0,0.4h-5.5c0,0.6,0.2,1.1,0.6,1.5
				c0.4,0.4,0.8,0.5,1.4,0.5c0.4,0,0.8-0.1,1.1-0.3c0.3-0.2,0.6-0.6,1-1.2l1.5,0.8c-0.2,0.4-0.5,0.7-0.7,1s-0.5,0.5-0.8,0.7
				s-0.6,0.3-0.9,0.4s-0.7,0.1-1.1,0.1c-1.1,0-2-0.4-2.7-1.1c-0.7-0.7-1-1.7-1-2.9c0-1.2,0.3-2.2,1-2.9C29.1,61.9,30,61.6,31.1,61.6
				 M29.4,64.6h3.5c-0.2-0.9-0.8-1.4-1.8-1.4c-0.2,0-0.4,0-0.6,0.1s-0.4,0.2-0.5,0.3s-0.3,0.3-0.4,0.4S29.5,64.3,29.4,64.6
				 M31.1,60.6c-1.4,0-2.5,0.5-3.4,1.4c-0.8,0.9-1.3,2.1-1.3,3.6c0,1.5,0.4,2.7,1.3,3.6c0.9,0.9,2,1.4,3.5,1.4
				c0.5,0,0.9-0.1,1.3-0.2c0.4-0.1,0.9-0.3,1.2-0.5c0.4-0.2,0.7-0.5,1-0.9c0.3-0.3,0.6-0.7,0.9-1.2l0.5-0.9l-0.5-0.3l0-0.7l0-0.4
				c0-1.5-0.4-2.7-1.2-3.6C33.7,61,32.5,60.6,31.1,60.6L31.1,60.6z M31,67h0.6c-0.1,0-0.2,0-0.3,0C31.2,67,31.1,67,31,67L31,67z"/>
		</g>
		<g>
			<path class="st1" d="M42.3,56.2H44v13.2h-1.8v-0.8c-0.7,0.7-1.5,1-2.4,1c-1,0-1.9-0.4-2.6-1.1c-0.7-0.8-1-1.7-1-2.9
				c0-1.1,0.3-2.1,1-2.8c0.7-0.8,1.5-1.1,2.6-1.1c0.9,0,1.7,0.4,2.4,1.1V56.2z M38.1,65.6c0,0.7,0.2,1.3,0.6,1.8
				c0.4,0.5,0.9,0.7,1.5,0.7c0.7,0,1.2-0.2,1.6-0.7c0.4-0.5,0.6-1.1,0.6-1.8s-0.2-1.3-0.6-1.8c-0.4-0.5-0.9-0.7-1.6-0.7
				c-0.6,0-1.1,0.2-1.5,0.7C38.3,64.3,38.1,64.9,38.1,65.6z"/>
			<path class="st0" d="M44,56.2v13.2h-1.8v-0.8c-0.7,0.7-1.5,1-2.4,1c-1,0-1.9-0.4-2.6-1.1c-0.7-0.8-1-1.7-1-2.9
				c0-1.1,0.3-2.1,1-2.8c0.7-0.8,1.5-1.1,2.6-1.1c0.9,0,1.7,0.4,2.4,1.1v-6.5H44 M40.2,68c0.7,0,1.2-0.2,1.6-0.7
				c0.4-0.5,0.6-1.1,0.6-1.8s-0.2-1.3-0.6-1.8c-0.4-0.5-0.9-0.7-1.6-0.7c-0.6,0-1.1,0.2-1.5,0.7c-0.4,0.5-0.6,1-0.6,1.7
				c0,0.7,0.2,1.3,0.6,1.8C39.1,67.8,39.6,68,40.2,68 M45,55.2h-1h-1.8h-1v1v4.6c-0.4-0.2-0.9-0.2-1.4-0.2c-1.3,0-2.4,0.5-3.3,1.5
				c-0.8,0.9-1.3,2.1-1.3,3.5c0,1.4,0.4,2.6,1.3,3.6c0.9,1,2,1.5,3.3,1.5c0.5,0,0.9-0.1,1.4-0.2v0h1H44h1v-1V56.2V55.2L45,55.2z
				 M40.2,67c-0.3,0-0.5-0.1-0.8-0.3c-0.2-0.3-0.3-0.6-0.3-1.1c0-0.4,0.1-0.8,0.4-1.1c0.2-0.2,0.4-0.3,0.8-0.3
				c0.4,0,0.6,0.1,0.8,0.3c0.2,0.3,0.4,0.6,0.4,1.1s-0.1,0.8-0.4,1.1C40.8,66.9,40.6,67,40.2,67L40.2,67z"/>
		</g>
		<g>
			<path class="st1" d="M46,58.6c0-0.3,0.1-0.6,0.3-0.8s0.5-0.3,0.8-0.3c0.3,0,0.6,0.1,0.8,0.3c0.2,0.2,0.3,0.5,0.3,0.8
				s-0.1,0.6-0.3,0.8c-0.2,0.2-0.5,0.3-0.8,0.3s-0.6-0.1-0.8-0.3S46,58.9,46,58.6z M48,61.8v7.6h-1.8v-7.6H48z"/>
			<path class="st0" d="M47.1,57.5c0.3,0,0.6,0.1,0.8,0.3c0.2,0.2,0.3,0.5,0.3,0.8s-0.1,0.6-0.3,0.8c-0.2,0.2-0.5,0.3-0.8,0.3
				s-0.6-0.1-0.8-0.3S46,58.9,46,58.6c0-0.3,0.1-0.6,0.3-0.8S46.8,57.5,47.1,57.5 M48,61.8v7.6h-1.8v-7.6H48 M47.1,56.5
				c-0.6,0-1.1,0.2-1.5,0.6S45,58,45,58.6c0,0.6,0.2,1.1,0.6,1.5s0.9,0.6,1.5,0.6c0.6,0,1.1-0.2,1.5-0.6c0.4-0.4,0.6-0.9,0.6-1.5
				c0-0.6-0.2-1.1-0.6-1.5C48.2,56.7,47.7,56.5,47.1,56.5L47.1,56.5z M49,60.8h-1h-1.8h-1v1v7.6v1h1H48h1v-1v-7.6V60.8L49,60.8z"/>
		</g>
		<g>
			<path class="st1" d="M52.1,63.4v6h-1.8v-6h-0.8v-1.6h0.8V59h1.8v2.8h1.4v1.6H52.1z"/>
			<path class="st0" d="M52.1,59v2.8h1.4v1.6h-1.4v6h-1.8v-6h-0.8v-1.6h0.8V59H52.1 M53.1,58h-1h-1.8h-1v1v1.8h-0.8v1v1.6v1h0.8v5v1
				h1h1.8h1v-1v-5h0.4h1v-1v-1.6v-1h-1h-0.4V59V58L53.1,58z"/>
		</g>
		<g>
			<path class="st1" d="M59,63.1l-1.5,0.8c-0.2-0.5-0.5-0.7-0.9-0.7c-0.2,0-0.3,0.1-0.4,0.2s-0.2,0.2-0.2,0.4c0,0.3,0.3,0.6,1,0.9
				c0.9,0.4,1.6,0.8,1.9,1.1s0.5,0.8,0.5,1.4c0,0.7-0.3,1.3-0.8,1.8c-0.5,0.5-1.2,0.7-1.9,0.7c-1.3,0-2.2-0.6-2.7-1.9l1.5-0.7
				c0.2,0.4,0.4,0.6,0.5,0.7c0.2,0.2,0.5,0.3,0.8,0.3c0.6,0,0.9-0.3,0.9-0.8c0-0.3-0.2-0.6-0.7-0.9c-0.2-0.1-0.4-0.2-0.5-0.3
				s-0.4-0.2-0.5-0.3c-0.5-0.2-0.9-0.5-1.1-0.8c-0.3-0.3-0.4-0.7-0.4-1.2c0-0.7,0.2-1.2,0.7-1.6c0.5-0.4,1-0.6,1.7-0.6
				C57.8,61.6,58.6,62.1,59,63.1z"/>
			<path class="st0" d="M56.9,61.6c1,0,1.7,0.5,2.2,1.5l-1.5,0.8c-0.2-0.5-0.5-0.7-0.9-0.7c-0.2,0-0.3,0.1-0.4,0.2s-0.2,0.2-0.2,0.4
				c0,0.3,0.3,0.6,1,0.9c0.9,0.4,1.6,0.8,1.9,1.1s0.5,0.8,0.5,1.4c0,0.7-0.3,1.3-0.8,1.8c-0.5,0.5-1.2,0.7-1.9,0.7
				c-1.3,0-2.2-0.6-2.7-1.9l1.5-0.7c0.2,0.4,0.4,0.6,0.5,0.7c0.2,0.2,0.5,0.3,0.8,0.3c0.6,0,0.9-0.3,0.9-0.8c0-0.3-0.2-0.6-0.7-0.9
				c-0.2-0.1-0.4-0.2-0.5-0.3s-0.4-0.2-0.5-0.3c-0.5-0.2-0.9-0.5-1.1-0.8c-0.3-0.3-0.4-0.7-0.4-1.2c0-0.7,0.2-1.2,0.7-1.6
				C55.6,61.8,56.2,61.6,56.9,61.6 M56.9,60.6c-0.9,0-1.7,0.3-2.4,0.9c-0.7,0.6-1,1.4-1,2.4c0,0.7,0.2,1.4,0.6,1.9
				c0.2,0.2,0.4,0.4,0.7,0.6l-1.1,0.5l-0.9,0.4l0.4,0.9c0.7,1.6,1.9,2.5,3.6,2.5c1,0,1.9-0.3,2.6-1c0.8-0.7,1.1-1.6,1.1-2.6
				c0-0.8-0.3-1.5-0.8-2.1c-0.2-0.2-0.5-0.5-0.9-0.7l0.7-0.3l0.8-0.4l-0.4-0.9C59.1,60.9,57.8,60.6,56.9,60.6L56.9,60.6z"/>
		</g>
	</g>
	<g>
		<g>
			<path class="st2" d="M35,18.5c-5.3,0-9.6,4.3-9.6,9.6s4.3,9.6,9.6,9.6s9.6-4.3,9.6-9.6S40.3,18.5,35,18.5z M40.2,27.8l-1.9,1.9
				l0.4,2.7c0.1,0.4-0.1,0.8-0.4,1c-0.2,0.1-0.4,0.2-0.6,0.2c-0.2,0-0.3,0-0.5-0.1L35,32.2l-2.3,1.3c-0.3,0.2-0.8,0.2-1.1-0.1
				c-0.3-0.2-0.5-0.6-0.4-1l0.4-2.7l-1.9-1.9c-0.3-0.3-0.4-0.7-0.2-1c0.1-0.4,0.4-0.6,0.8-0.7l2.5-0.4l1.1-2.4
				c0.3-0.7,1.5-0.7,1.9,0l1.1,2.4l2.5,0.4c0.4,0.1,0.7,0.3,0.8,0.7C40.6,27.1,40.5,27.5,40.2,27.8L40.2,27.8z"/>
		</g>
		<g>
			<path class="st2" d="M26.7,36.3l-5.3,9.6c-0.2,0.3-0.2,0.7,0,1.1c0.2,0.3,0.6,0.5,0.9,0.5l4.2-0.3l1.9,3.8
				c0.2,0.3,0.5,0.6,0.9,0.6h0c0.4,0,0.7-0.2,0.9-0.5l3.5-6.2l-3.4-6C29,38.3,27.8,37.4,26.7,36.3L26.7,36.3z"/>
		</g>
		<g>
			<path class="st2" d="M48.6,45.9l-5.4-9.5c-1.7,1.7-4,2.9-6.6,3.3c-0.5,0.1-1.1,0.1-1.7,0.1c-0.6,0-1.2,0-1.8-0.1l1.7,3l4.7,8.3
				c0.2,0.3,0.5,0.5,0.9,0.5h0c0.4,0,0.7-0.2,0.9-0.6l1.9-3.8l4.3,0.3c0.4,0,0.7-0.2,0.9-0.5C48.8,46.6,48.8,46.2,48.6,45.9
				L48.6,45.9z"/>
		</g>
	</g>
</g>
</svg>
