<?xml version="1.0" encoding="utf-8"?>
<!-- Generator: Adobe Illustrator 23.1.1, SVG Export Plug-In . SVG Version: 6.00 Build 0)  -->
<svg version="1.1" id="Layer_1" xmlns="http://www.w3.org/2000/svg" xmlns:xlink="http://www.w3.org/1999/xlink" x="0px" y="0px"
	 viewBox="0 0 93.4 31" style="enable-background:new 0 0 93.4 31;" xml:space="preserve">
<title>New</title>
<desc>Newly added item.</desc>
<style type="text/css">
	.new-svg .st0{fill:#5E2026;}
	.new-svg .st1{fill:url(#SVGID_1_);}
	.new-svg .st2{fill:url(#SVGID_2_);}
	.new-svg .st3{fill:url(#SVGID_3_);}
	.new-svg .st4{fill:url(#SVGID_4_);}
	.new-svg .st5{fill:url(#SVGID_5_);}
	.new-svg .st6{fill:url(#SVGID_6_);}
</style>
<g class="new-svg">
	<g>
		<g>
			<path class="st0" d="M92.9,21.8c-0.2-0.4-0.3-0.7-0.5-1c0.2-0.4,0.3-0.9,0.3-1.4V4c0-1.7-1.3-3-3-3h-5.8c-0.6,0-1.1,0.2-1.5,0.4
				c-0.4-0.3-1-0.4-1.5-0.4H75c-1.7,0-3,1.3-3,3v4.5h-3.2c-1.2,0-2.2,0.7-2.7,1.7l-1.3,2.7l-1.3-2.7c-0.5-1.1-1.6-1.7-2.7-1.7h-3.5
				c-1.2,0-2.2,0.7-2.7,1.7l-1.2,2.5l-1.1-2.5c-0.5-1.1-1.6-1.8-2.7-1.8h-6.3c-0.4,0-0.8,0.1-1.2,0.3c-0.1,0-0.1-0.1-0.2-0.1
				c-1.4-0.5-3-0.8-4.7-0.8c-1.7,0-3.3,0.3-4.7,0.8C31.7,9,31,9.3,30.3,9.7V4c0-1.7-1.3-3-3-3h-6c-1.7,0-3,1.3-3,3v5.6l-5.9-7.5
				C11.9,1.4,11,1,10.1,1H4C2.3,1,1,2.3,1,4v23.4c0,1.7,1.3,3,3,3h6.1c1.7,0,3-1.3,3-3v-5.6l5.9,7.5c0.6,0.7,1.4,1.1,2.4,1.1h6
				c1.2,0,2.1-0.7,2.6-1.6c0.8,0.6,1.7,1.1,2.7,1.4c1.4,0.5,3,0.8,4.7,0.8c4.6,0,8-1.7,9.9-5l1.4,2.7c0.5,1,1.5,1.6,2.7,1.6h3.8
				c1.2,0,2.3-0.7,2.8-1.8l1.1-2.5l1.2,2.6c0.5,1.1,1.6,1.8,2.7,1.8h3.8c1.1,0,2.1-0.6,2.7-1.6l1.9-3.7c0.1,0.6,0.2,1.3,0.5,1.9
				c0.3,0.8,0.8,1.5,1.4,2.1c0.6,0.6,1.3,1.1,2.1,1.4c0.8,0.3,1.7,0.5,2.6,0.5c0.9,0,1.8-0.2,2.6-0.5c0.7-0.3,1.3-0.7,1.8-1.2
				c0.5,0.5,1.2,0.9,1.8,1.2c0.8,0.3,1.7,0.5,2.6,0.5c0.9,0,1.8-0.2,2.6-0.5c0.8-0.3,1.5-0.8,2.1-1.4c0.6-0.6,1.1-1.3,1.4-2.1
				c0.3-0.8,0.5-1.7,0.5-2.6C93.4,23.5,93.2,22.6,92.9,21.8z M75,11.6v-0.1h0.1L75,11.6z"/>
		</g>
	</g>
	<g>
		<g>
			<linearGradient id="SVGID_1_" gradientUnits="userSpaceOnUse" x1="46.1826" y1="0" x2="46.1826" y2="30.0249">
				<stop  offset="0" style="stop-color:#FFFCFB"/>
				<stop  offset="1" style="stop-color:#F8EBD3"/>
			</linearGradient>
			<path class="st1" d="M91.9,20.8c-0.2-0.4-0.3-0.7-0.5-1c0.2-0.4,0.3-0.9,0.3-1.4V3c0-1.7-1.3-3-3-3h-5.8c-0.6,0-1.1,0.2-1.5,0.4
				c-0.4-0.3-1-0.4-1.5-0.4H74c-1.7,0-3,1.3-3,3v4.5h-3.2c-1.2,0-2.2,0.7-2.7,1.7l-1.3,2.7l-1.3-2.7c-0.5-1.1-1.6-1.7-2.7-1.7h-3.5
				c-1.2,0-2.2,0.7-2.7,1.7l-1.2,2.5l-1.1-2.5c-0.5-1.1-1.6-1.8-2.7-1.8h-6.3c-0.4,0-0.8,0.1-1.2,0.3c-0.1,0-0.1-0.1-0.2-0.1
				c-1.4-0.5-3-0.8-4.7-0.8c-1.7,0-3.3,0.3-4.7,0.8C30.7,8,30,8.3,29.3,8.7V3c0-1.7-1.3-3-3-3h-6c-1.7,0-3,1.3-3,3v5.6l-5.9-7.5
				C10.9,0.4,10,0,9.1,0H3C1.3,0,0,1.3,0,3v23.4c0,1.7,1.3,3,3,3h6.1c1.7,0,3-1.3,3-3v-5.6l5.9,7.5c0.6,0.7,1.4,1.1,2.4,1.1h6
				c1.2,0,2.1-0.7,2.6-1.6c0.8,0.6,1.7,1.1,2.7,1.4c1.4,0.5,3,0.8,4.7,0.8c4.6,0,8-1.7,9.9-5l1.4,2.7c0.5,1,1.5,1.6,2.7,1.6h3.8
				c1.2,0,2.3-0.7,2.8-1.8l1.1-2.5l1.2,2.6c0.5,1.1,1.6,1.8,2.7,1.8h3.8c1.1,0,2.1-0.6,2.7-1.6l1.9-3.7c0.1,0.6,0.2,1.3,0.5,1.9
				c0.3,0.8,0.8,1.5,1.4,2.1c0.6,0.6,1.3,1.1,2.1,1.4c0.8,0.3,1.7,0.5,2.6,0.5c0.9,0,1.8-0.2,2.6-0.5c0.7-0.3,1.3-0.7,1.8-1.2
				c0.5,0.5,1.2,0.9,1.8,1.2c0.8,0.3,1.7,0.5,2.6,0.5c0.9,0,1.8-0.2,2.6-0.5c0.8-0.3,1.5-0.8,2.1-1.4c0.6-0.6,1.1-1.3,1.4-2.1
				c0.3-0.8,0.5-1.7,0.5-2.6C92.4,22.5,92.2,21.6,91.9,20.8z M74,10.6v-0.1h0.1L74,10.6z"/>
		</g>
	</g>
	<g>
		<linearGradient id="SVGID_2_" gradientUnits="userSpaceOnUse" x1="14.6714" y1="3" x2="14.6714" y2="26.374">
			<stop  offset="0" style="stop-color:#FE8B84"/>
			<stop  offset="1" style="stop-color:#ED4E5F"/>
		</linearGradient>
		<path class="st2" d="M3,26.4V3h6.1l11.2,14.3V3h6v23.4h-6L9.1,12.1v14.3H3z"/>
		<linearGradient id="SVGID_3_" gradientUnits="userSpaceOnUse" x1="36.1074" y1="9.8818" x2="36.1074" y2="26.9629">
			<stop  offset="0" style="stop-color:#FE8B84"/>
			<stop  offset="1" style="stop-color:#ED4E5F"/>
		</linearGradient>
		<path class="st3" d="M33,19.4c0,2.4,1.1,3.6,3.4,3.6c1.2,0,2.1-0.5,2.8-1.5h5.4c-1.1,3.6-3.8,5.5-8.2,5.5c-1.3,0-2.6-0.2-3.7-0.6
			c-1.1-0.4-2.1-1-2.9-1.7C29.1,23.9,28.5,23,28,22c-0.4-1-0.7-2.2-0.7-3.5c0-1.3,0.2-2.5,0.6-3.6c0.4-1.1,1-2,1.8-2.7
			c0.8-0.7,1.7-1.3,2.8-1.7c1.1-0.4,2.3-0.6,3.7-0.6c1.3,0,2.6,0.2,3.6,0.6c1.1,0.4,2,1,2.7,1.8c0.7,0.8,1.3,1.7,1.7,2.8
			c0.4,1.1,0.6,2.4,0.6,3.7v0.6H33z M39.6,16.1c-0.2-0.8-0.6-1.4-1.1-1.9c-0.6-0.5-1.3-0.7-2.1-0.7c-0.9,0-1.6,0.2-2.1,0.7
			c-0.5,0.5-0.9,1.1-1,1.9H39.6z"/>
		<linearGradient id="SVGID_4_" gradientUnits="userSpaceOnUse" x1="58.1638" y1="10.4712" x2="58.1638" y2="26.374">
			<stop  offset="0" style="stop-color:#FE8B84"/>
			<stop  offset="1" style="stop-color:#ED4E5F"/>
		</linearGradient>
		<path class="st4" d="M48.5,10.5l3.8,8.4l4-8.4h3.5l4,8.6l4-8.6h6.2l-8.3,15.9H62l-4-8.7l-3.8,8.7h-3.8l-8.2-15.9H48.5z"/>
		<linearGradient id="SVGID_5_" gradientUnits="userSpaceOnUse" x1="76.9033" y1="3" x2="76.9033" y2="27.0249">
			<stop  offset="0" style="stop-color:#FE8B84"/>
			<stop  offset="1" style="stop-color:#ED4E5F"/>
		</linearGradient>
		<path class="st5" d="M73.3,23.4c0-0.5,0.1-1,0.3-1.4c0.2-0.4,0.4-0.8,0.8-1.2s0.7-0.6,1.2-0.8c0.4-0.2,0.9-0.3,1.4-0.3
			s1,0.1,1.4,0.3c0.4,0.2,0.8,0.4,1.2,0.8s0.6,0.7,0.8,1.2c0.2,0.4,0.3,0.9,0.3,1.4s-0.1,1-0.3,1.4c-0.2,0.4-0.4,0.8-0.8,1.2
			s-0.7,0.6-1.2,0.8S77.4,27,76.9,27s-1-0.1-1.4-0.3c-0.4-0.2-0.8-0.4-1.2-0.8s-0.6-0.7-0.8-1.2C73.4,24.4,73.3,23.9,73.3,23.4z
			 M74,18.4V3h5.8v15.4H74z"/>
		<linearGradient id="SVGID_6_" gradientUnits="userSpaceOnUse" x1="85.7383" y1="3" x2="85.7383" y2="27.0249">
			<stop  offset="0" style="stop-color:#FE8B84"/>
			<stop  offset="1" style="stop-color:#ED4E5F"/>
		</linearGradient>
		<path class="st6" d="M82.1,23.4c0-0.5,0.1-1,0.3-1.4c0.2-0.4,0.4-0.8,0.8-1.2s0.7-0.6,1.2-0.8c0.4-0.2,0.9-0.3,1.4-0.3
			s1,0.1,1.4,0.3c0.4,0.2,0.8,0.4,1.2,0.8s0.6,0.7,0.8,1.2c0.2,0.4,0.3,0.9,0.3,1.4s-0.1,1-0.3,1.4c-0.2,0.4-0.4,0.8-0.8,1.2
			s-0.7,0.6-1.2,0.8S86.2,27,85.7,27s-1-0.1-1.4-0.3c-0.4-0.2-0.8-0.4-1.2-0.8s-0.6-0.7-0.8-1.2C82.2,24.4,82.1,23.9,82.1,23.4z
			 M82.8,18.4V3h5.8v15.4H82.8z"/>
	</g>
</g>
</svg>
