<?xml version="1.0" encoding="utf-8"?>
<svg version="1.1" id="Layer_1" xmlns="http://www.w3.org/2000/svg" xmlns:xlink="http://www.w3.org/1999/xlink" x="0px" y="0px"
   viewBox="0 0 40 40" style="enable-background:new 0 0 40 40;" xml:space="preserve">
  <title>HKID Generator</title>
  <desc>Project icon</desc>
  <path fill="currentColor" d="M36.67,4.44H3.33A3.34,3.34,0,0,0,0,7.78V8.89H40V7.78A3.34,3.34,0,0,0,36.67,4.44ZM0,32.22a3.34,3.34,0,0,0,3.33,3.34H36.67A3.34,3.34,0,0,0,40,32.22V11.11H0ZM24.44,16.11a.56.56,0,0,1,.56-.55H35a.56.56,0,0,1,.56.55v1.11a.56.56,0,0,1-.56.56H25a.56.56,0,0,1-.56-.56Zm0,4.45A.56.56,0,0,1,25,20H35a.56.56,0,0,1,.56.56v1.11a.56.56,0,0,1-.56.55H25a.56.56,0,0,1-.56-.55Zm0,4.44a.56.56,0,0,1,.56-.56H35a.56.56,0,0,1,.56.56v1.11a.56.56,0,0,1-.56.56H25a.56.56,0,0,1-.56-.56ZM12.22,15.56A4.44,4.44,0,1,1,7.78,20,4.45,4.45,0,0,1,12.22,15.56ZM4.66,29.74a4.44,4.44,0,0,1,4.23-3.07h.57a7.23,7.23,0,0,0,5.53,0h.57a4.43,4.43,0,0,1,4.22,3.07,1.09,1.09,0,0,1-1.08,1.37h-13A1.09,1.09,0,0,1,4.66,29.74Z" />
</svg>
