<?xml version="1.0" encoding="utf-8"?>
<svg version="1.1" id="Layer_1" xmlns="http://www.w3.org/2000/svg" xmlns:xlink="http://www.w3.org/1999/xlink" x="0px" y="0px"
   viewBox="0 0 40 40" style="enable-background:new 0 0 40 40;" xml:space="preserve">
  <title>MTR Service Status</title>
  <desc>Project icon</desc>
  <path fill="currentColor" d="M15,6.58h-4.7a.79.79,0,0,0-.83.71s-.6,3.3-.89,5.55S8,18.46,8,18.46c0,.43.19.7.75.7h6.11c.64,0,.86-.32.86-.93v-11A.63.63,0,0,0,15,6.58" />
  <path fill="currentColor" d="M35,5.8c-.41-2.18-1.28-3.28-4.7-4.34A34.79,34.79,0,0,0,20.37,0h-.74A34.34,34.34,0,0,0,9.68,1.47C6.28,2.52,5.4,3.63,5,5.8c-3,15.55-1.6,21-1.6,21a18.72,18.72,0,0,0,1.75,5.94,2.23,2.23,0,0,0,1.54.91H33.33a2.2,2.2,0,0,0,1.52-.91,18.89,18.89,0,0,0,1.76-5.94S38,21.35,35,5.8ZM33,28.16a1.13,1.13,0,0,1-.58.1H7.62a1.13,1.13,0,0,1-.58-.1c-1.93-1.44-1.81-5.05-1.81-5.05H34.78S34.89,26.73,33,28.16Zm1.8-5.4H5.24A74.22,74.22,0,0,1,6.89,7.2c.36-1.9,1.05-3,4.1-3.65a18.31,18.31,0,0,1,2.58-.18H26.43A19,19,0,0,1,29,3.55c3,.69,3.74,1.75,4.1,3.65A73.57,73.57,0,0,1,34.76,22.76Z" />
  <path fill="currentColor" d="M13.78,26.83a.42.42,0,0,0,.42-.42v-1.7a.41.41,0,0,0-.42-.4H8.44a.41.41,0,0,0-.41.4v1.7a.41.41,0,0,0,.41.42h5.34" />
  <path fill="currentColor" d="M25,6.58h4.7a.79.79,0,0,1,.82.71s.61,3.3.89,5.55.57,5.62.57,5.62c0,.43-.18.7-.73.7H25.11c-.66,0-.86-.32-.86-.93v-11c0-.53.36-.68.73-.68" />
  <path fill="currentColor" d="M26.21,26.83a.39.39,0,0,1-.39-.42v-1.7a.39.39,0,0,1,.39-.4h5.34a.4.4,0,0,1,.41.4v1.7a.41.41,0,0,1-.41.42H26.21" />
  <polygon fill="currentColor" points="34.79 40 29.5 40 27.45 34.84 29.8 34.84 34.79 40" />
  <polygon fill="currentColor" points="10.49 40 5.21 40 10.2 34.84 12.55 34.84 10.49 40" />
</svg>
