<?xml version="1.0" encoding="utf-8"?>
<svg version="1.1" id="Layer_1" xmlns="http://www.w3.org/2000/svg" xmlns:xlink="http://www.w3.org/1999/xlink" x="0px" y="0px"
   viewBox="0 0 40 40" style="enable-background:new 0 0 40 40;" xml:space="preserve">
  <title>PX to EM convert</title>
  <desc>Project icon</desc>
  <path fill="currentColor" d="M0,16.05V6.82H3.27A6.35,6.35,0,0,1,4.68,7a3.23,3.23,0,0,1,1.15.49,2.52,2.52,0,0,1,.77.93,3.12,3.12,0,0,1,.28,1.4,3.25,3.25,0,0,1-.29,1.41,2.66,2.66,0,0,1-.78,1,3.35,3.35,0,0,1-1.15.57,5.24,5.24,0,0,1-1.39.18H2.08v3.13Zm2.08-4.78H3.14c1.14,0,1.7-.49,1.7-1.48a1.15,1.15,0,0,0-.43-1,2.32,2.32,0,0,0-1.27-.29H2.08Z" />
  <path fill="currentColor" d="M7.69,16.05l2.69-4.74L7.84,6.82h2.34l.89,1.74c.11.22.21.45.33.69l.38.8h.06c.11-.29.22-.56.32-.8s.2-.47.3-.69l.82-1.74h2.24L13,11.41l2.69,4.64H13.35l-1-1.88c-.14-.25-.26-.49-.37-.73s-.24-.5-.37-.79h-.06a8.51,8.51,0,0,1-.34.79l-.34.73-1,1.88Z" />
  <path fill="currentColor" d="M25.13,33.18V24h6.12V25.7h-4v1.86h3.41V29.3H27.23v2.12h4.16v1.76Z" />
  <path fill="currentColor" d="M33.15,33.18V24h2.18l.9,3.27.32,1.27h.05l.31-1.27L37.82,24H40v9.23H38.24V30.32q0-.39,0-1c0-.39,0-.79.07-1.19s.06-.8.1-1.19.05-.69.07-.94h0l-.71,2.47-.7,2.22H36l-.73-2.22L34.65,26h0c0,.25,0,.56.08.94s.06.78.09,1.19,0,.8.07,1.19,0,.7,0,1v2.86Z" />
  <polygon fill="currentColor" points="20.07 29.6 3.4 29.6 29.1 12.7 20.01 12.7 20.01 10.42 36.72 10.42 11.03 27.32 20.07 27.32 20.07 29.6" />
  <polygon fill="currentColor" points="18.07 32.24 16.46 30.62 18.62 28.46 16.46 26.3 18.07 24.69 21.85 28.46 18.07 32.24" />
</svg>
