<?xml version="1.0" encoding="utf-8"?>
<svg version="1.1" id="Layer_1" xmlns="http://www.w3.org/2000/svg" xmlns:xlink="http://www.w3.org/1999/xlink" x="0px" y="0px"
   viewBox="0 0 40 40" style="enable-background:new 0 0 40 40;" xml:space="preserve">
  <title>Random Name Picker</title>
  <desc>Project icon</desc>
  <path fill="currentColor" d="M20,25.26a4.83,4.83,0,1,0-4.83-4.83A4.83,4.83,0,0,0,20,25.26Zm0-7.09a2.26,2.26,0,1,1-2.26,2.26A2.26,2.26,0,0,1,20,18.17Z" />
  <path fill="currentColor" d="M33.8,20.43a4,4,0,1,0-4-4A4,4,0,0,0,33.8,20.43Zm0-5.46a1.45,1.45,0,1,1-1.44,1.44A1.44,1.44,0,0,1,33.8,15Z" />
  <path fill="currentColor" d="M6.2,20.43a4,4,0,1,0-4-4A4,4,0,0,0,6.2,20.43ZM6.2,15a1.45,1.45,0,0,1,0,2.89A1.45,1.45,0,1,1,6.2,15Z" />
  <path fill="currentColor" d="M36.14,22.69H31.46a3.85,3.85,0,0,0-3.86,3.85v2.05a3.82,3.82,0,0,0-2.45-.88H14.85a3.82,3.82,0,0,0-2.45.88V26.54a3.85,3.85,0,0,0-3.86-3.85H3.86A3.85,3.85,0,0,0,0,26.54v6.31a1.28,1.28,0,0,0,1.29,1.28H11v3.74a1.28,1.28,0,0,0,1.29,1.28H27.72A1.28,1.28,0,0,0,29,37.87V34.13h9.7A1.28,1.28,0,0,0,40,32.85V26.54A3.85,3.85,0,0,0,36.14,22.69ZM9.83,31.56H2.57v-5a1.28,1.28,0,0,1,1.29-1.28H8.54a1.28,1.28,0,0,1,1.29,1.28Zm16.61,5H13.56v-5a1.28,1.28,0,0,1,1.29-1.28h10.3a1.28,1.28,0,0,1,1.29,1.28Zm11-5H30.17v-5a1.28,1.28,0,0,1,1.29-1.28h4.68a1.28,1.28,0,0,1,1.29,1.28Z" />
  <path fill="currentColor" d="M20.43,13.1l3.1-3.9a.62.62,0,0,0-.48-1H22a.58.58,0,0,1-.62-.56V1.45a.58.58,0,0,0-.58-.6H19.17a.61.61,0,0,0-.6.6V7.64A.55.55,0,0,1,18,8.2h-1a.61.61,0,0,0-.47,1l3,3.89A.59.59,0,0,0,20.43,13.1Z" />
</svg>
