<?xml version="1.0" encoding="utf-8"?>
<svg version="1.1" id="Layer_1" xmlns="http://www.w3.org/2000/svg" xmlns:xlink="http://www.w3.org/1999/xlink" x="0px" y="0px"
   viewBox="0 0 40 40" style="enable-background:new 0 0 40 40;" xml:space="preserve">
  <title>Whatsapp Link Builder</title>
  <desc>Project icon</desc>
  <path fill="currentColor" d="M19,0A19.85,19.85,0,0,0,2.32,28.85L.21,39.07a.78.78,0,0,0,.94.91l10-2.37a19.64,19.64,0,0,0,8.52,2.06A19.84,19.84,0,1,0,19,0ZM31.77,31.61a16.64,16.64,0,0,1-19.18,3.14L11.09,34,4.51,35.57,5.9,28.84,5.16,27.4A16.65,16.65,0,0,1,31.77,8.07a16.63,16.63,0,0,1,0,23.54Z" />
  <path fill="currentColor" d="M30.57,22.6l-3-3a4,4,0,0,0-2.95-1.22,4.07,4.07,0,0,0-3,1.27l-1.27-1.27a4.09,4.09,0,0,0,1.27-3,4,4,0,0,0-1.2-2.93l-3-3A3.94,3.94,0,0,0,14.5,8.22a4,4,0,0,0-2.93,1.19L9.44,11.52a3.93,3.93,0,0,0-1.22,2.93A4,4,0,0,0,9.43,17.4l3,3a4,4,0,0,0,3,1.22,4.07,4.07,0,0,0,3-1.27l1.27,1.27a4.09,4.09,0,0,0-1.27,3,4,4,0,0,0,1.2,2.93l3,3a4.18,4.18,0,0,0,5.87,0l2.13-2.11a4.16,4.16,0,0,0,0-5.88ZM18.38,16.42l-.26-.28-.32-.31a2.14,2.14,0,0,0-.27-.21,1.09,1.09,0,0,0-.37-.19,1.62,1.62,0,0,0-.4,0,1.37,1.37,0,0,0-1.38,1.39,1.6,1.6,0,0,0,0,.39,1.09,1.09,0,0,0,.19.37l.21.28c.06.05.16.16.31.31l.28.26a1.4,1.4,0,0,1-1,.45,1.32,1.32,0,0,1-1-.39l-3-3a1.34,1.34,0,0,1-.4-1,1.31,1.31,0,0,1,.4-1l2.13-2.11a1.37,1.37,0,0,1,1-.39,1.34,1.34,0,0,1,1,.4l3,3a1.34,1.34,0,0,1,.41,1A1.4,1.4,0,0,1,18.38,16.42ZM28.61,26.51l-2.13,2.11a1.38,1.38,0,0,1-1,.38,1.33,1.33,0,0,1-1-.39l-3-3a1.34,1.34,0,0,1-.41-1,1.4,1.4,0,0,1,.48-1.06l.27.28c.14.15.25.25.31.31a2.14,2.14,0,0,0,.27.21,1.19,1.19,0,0,0,.37.19,1.62,1.62,0,0,0,.4.05,1.37,1.37,0,0,0,1.38-1.38,1.62,1.62,0,0,0-.05-.4,1,1,0,0,0-.19-.37,2.14,2.14,0,0,0-.21-.27l-.31-.32-.28-.26a1.38,1.38,0,0,1,1-.46,1.32,1.32,0,0,1,1,.4l3,3a1.34,1.34,0,0,1,.4,1A1.31,1.31,0,0,1,28.61,26.51Z" />
</svg>
